<svg width="1440" height="900" viewBox="0 0 1440 900" fill="none" xmlns="http://www.w3.org/2000/svg">
  <rect width="1440" height="900" rx="36" fill="#F1F5F9"/>
  <rect x="48" y="40" width="304" height="820" rx="36" fill="#0F172A"/>
  <rect x="82" y="80" width="182" height="28" rx="14" fill="#4ADE80"/>
  <rect x="76" y="156" width="248" height="54" rx="20" fill="#15803D"/>
  <rect x="76" y="228" width="248" height="54" rx="20" fill="#1E293B"/>
  <rect x="76" y="300" width="248" height="54" rx="20" fill="#1E293B"/>
  <rect x="76" y="372" width="248" height="54" rx="20" fill="#1E293B"/>
  <rect x="76" y="444" width="248" height="54" rx="20" fill="#1E293B"/>
  <rect x="390" y="40" width="1002" height="160" rx="36" fill="white"/>
  <rect x="428" y="82" width="240" height="28" rx="14" fill="#0F172A"/>
  <rect x="428" y="128" width="430" height="20" rx="10" fill="#94A3B8"/>
  <rect x="390" y="232" width="236" height="166" rx="32" fill="#16A34A"/>
  <rect x="418" y="266" width="112" height="18" rx="9" fill="#D1FAE5"/>
  <rect x="418" y="308" width="138" height="42" rx="21" fill="white"/>
  <rect x="648" y="232" width="236" height="166" rx="32" fill="white"/>
  <rect x="676" y="266" width="112" height="18" rx="9" fill="#94A3B8"/>
  <rect x="676" y="308" width="138" height="42" rx="21" fill="#0F172A"/>
  <rect x="906" y="232" width="236" height="166" rx="32" fill="white"/>
  <rect x="934" y="266" width="112" height="18" rx="9" fill="#94A3B8"/>
  <rect x="934" y="308" width="138" height="42" rx="21" fill="#0F172A"/>
  <rect x="1164" y="232" width="228" height="166" rx="32" fill="white"/>
  <rect x="1192" y="266" width="112" height="18" rx="9" fill="#94A3B8"/>
  <rect x="1192" y="308" width="138" height="42" rx="21" fill="#0F172A"/>
  <rect x="390" y="430" width="1002" height="430" rx="36" fill="white"/>
  <rect x="426" y="468" width="220" height="24" rx="12" fill="#0F172A"/>
  <rect x="426" y="528" width="930" height="68" rx="24" fill="#F8FAFC"/>
  <rect x="454" y="552" width="160" height="18" rx="9" fill="#0F172A"/>
  <rect x="1098" y="548" width="112" height="24" rx="12" fill="#16A34A"/>
  <rect x="1232" y="548" width="96" height="24" rx="12" fill="#E2E8F0"/>
  <rect x="426" y="620" width="930" height="68" rx="24" fill="#F8FAFC"/>
  <rect x="454" y="644" width="160" height="18" rx="9" fill="#0F172A"/>
  <rect x="1098" y="640" width="112" height="24" rx="12" fill="#16A34A"/>
  <rect x="1232" y="640" width="96" height="24" rx="12" fill="#E2E8F0"/>
  <rect x="426" y="712" width="930" height="68" rx="24" fill="#F8FAFC"/>
  <rect x="454" y="736" width="160" height="18" rx="9" fill="#0F172A"/>
  <rect x="1098" y="732" width="112" height="24" rx="12" fill="#16A34A"/>
  <rect x="1232" y="732" width="96" height="24" rx="12" fill="#E2E8F0"/>
</svg>

