<svg width="1440" height="900" viewBox="0 0 1440 900" fill="none" xmlns="http://www.w3.org/2000/svg">
  <rect width="1440" height="900" rx="36" fill="#F8FAFC"/>
  <rect x="48" y="40" width="1344" height="88" rx="28" fill="white"/>
  <rect x="78" y="66" width="220" height="36" rx="18" fill="#15803D"/>
  <rect x="72" y="168" width="812" height="672" rx="36" fill="white"/>
  <rect x="104" y="204" width="250" height="24" rx="12" fill="#0F172A"/>
  <rect x="104" y="252" width="748" height="118" rx="28" fill="#F0FDF4"/>
  <rect x="128" y="280" width="182" height="20" rx="10" fill="#166534"/>
  <rect x="128" y="316" width="320" height="18" rx="9" fill="#94A3B8"/>
  <rect x="720" y="284" width="96" height="34" rx="17" fill="#16A34A"/>
  <rect x="104" y="398" width="748" height="118" rx="28" fill="#FFFFFF" stroke="#E2E8F0" stroke-width="2"/>
  <rect x="128" y="426" width="182" height="20" rx="10" fill="#166534"/>
  <rect x="128" y="462" width="320" height="18" rx="9" fill="#94A3B8"/>
  <rect x="104" y="558" width="748" height="122" rx="32" fill="#F8FAFC"/>
  <rect x="128" y="590" width="230" height="22" rx="11" fill="#0F172A"/>
  <rect x="128" y="628" width="698" height="20" rx="10" fill="#E2E8F0"/>
  <rect x="920" y="168" width="448" height="672" rx="36" fill="#166534"/>
  <rect x="954" y="206" width="182" height="24" rx="12" fill="#D1FAE5"/>
  <rect x="954" y="262" width="380" height="72" rx="24" fill="#14532D"/>
  <rect x="978" y="286" width="160" height="18" rx="9" fill="white"/>
  <rect x="1204" y="284" width="100" height="22" rx="11" fill="#BBF7D0"/>
  <rect x="954" y="358" width="380" height="72" rx="24" fill="#14532D"/>
  <rect x="978" y="382" width="160" height="18" rx="9" fill="white"/>
  <rect x="1204" y="380" width="100" height="22" rx="11" fill="#BBF7D0"/>
  <rect x="954" y="468" width="380" height="2" fill="#4ADE80"/>
  <rect x="954" y="506" width="120" height="18" rx="9" fill="#D1FAE5"/>
  <rect x="1210" y="506" width="124" height="18" rx="9" fill="white"/>
  <rect x="954" y="548" width="120" height="18" rx="9" fill="#D1FAE5"/>
  <rect x="1210" y="548" width="124" height="18" rx="9" fill="white"/>
  <rect x="954" y="590" width="120" height="18" rx="9" fill="#D1FAE5"/>
  <rect x="1210" y="590" width="124" height="18" rx="9" fill="white"/>
  <rect x="954" y="644" width="146" height="20" rx="10" fill="white"/>
  <rect x="1184" y="640" width="150" height="28" rx="14" fill="#FACC15"/>
  <rect x="954" y="726" width="380" height="56" rx="28" fill="#FACC15"/>
</svg>

